<?xml version="1.0"?>
<svg viewBox="0 0 54 54" xmlns="http://www.w3.org/2000/svg" xmlns:svg="http://www.w3.org/2000/svg">
 <!-- Created with SVG-edit - https://github.com/SVG-Edit/svgedit-->
 <title>United Rhythmized Club</title>
 <g class="layer">
  <title>Black and White</title>
  <rect fill="#000000" height="20" id="black-middle-outside" width="10" x="17" y="17"/>
  <rect fill="#ffffff" height="20" id="white-middle-outside" width="10" x="27" y="17"/>
  <rect fill="#ffffff" height="16" id="white-middle-inside" width="8" x="19" y="19"/>
  <rect fill="#000000" height="16" id="black-middle-inside" width="8" x="27" y="19"/>
  <rect fill="#000000" height="12" id="black-inside" width="6" x="21" y="21"/>
  <rect fill="#ffffff" height="12" id="white-inside" width="6" x="27" y="21"/>
 </g>
 <g class="layer">
  <title>Color</title>
  <rect fill="#ff0000" height="6" id="red" width="6" x="31" y="10"/>
  <rect fill="#ff8000" height="6" id="orange" width="6" x="38" y="17"/>
  <rect fill="#ffff00" height="6" id="yellow" width="6" x="45" y="24"/>
  <rect fill="#80ff00" height="6" id="chartreuse" width="6" x="38" y="31"/>
  <rect fill="#00ff00" height="6" id="green" width="6" x="31" y="38"/>
  <rect fill="#00ff80" height="6" id="spring-green" width="6" x="24" y="45"/>
  <rect fill="#00ffff" height="6" id="cyan" width="6" x="17" y="38"/>
  <rect fill="#0080ff" height="6" id="azure-radiance" width="6" x="10" y="31"/>
  <rect fill="#0000ff" height="6" id="blue" width="6" x="3" y="24"/>
  <rect fill="#8000ff" height="6" id="electric-violet" width="6" x="10" y="17"/>
  <rect fill="#ff00ff" height="6" id="magenta" width="6" x="17" y="10"/>
  <rect fill="#ff0080" height="6" id="rose" width="6" x="24" y="3"/>
 </g>
</svg>